<svg width="84" height="59" viewBox="0 0 84 59" fill="none" xmlns="http://www.w3.org/2000/svg">
<g opacity="0.3" filter="url(#filter0_d_143_12)">
<path d="M70.7593 6.97332L73.9753 12.5436C74.1993 12.9316 74.4533 13.1636 74.7374 13.2398C75.0274 13.294 75.3941 13.1932 75.8375 12.9372L77.1885 12.1572L78.6045 14.6098L76.7755 15.6658C74.3229 17.0818 72.4086 16.5981 71.0326 14.2148L67.8286 8.66532L66.4568 9.45732L65.0768 7.06709L66.4486 6.27509L64.8046 3.4276L67.7353 1.7356L69.3792 4.58309L71.9565 3.09509L73.3365 5.48532L70.7593 6.97332Z" fill="none" fill-opacity="0.79" shape-rendering="crispEdges"/>
<path d="M54.4567 20.8197C53.7847 19.6557 53.4173 18.4914 53.3546 17.3268C53.3057 16.1541 53.5362 15.0973 54.046 14.1563C54.5696 13.2073 55.3234 12.4488 56.3072 11.8808C57.1663 11.3848 58.0145 11.126 58.8519 11.1045C59.7032 11.0749 60.4748 11.2113 61.1668 11.5139L60.2188 9.8719L63.1494 8.1799L69.7974 19.6946L66.8668 21.3866L65.8948 19.703C65.8326 20.4594 65.573 21.2098 65.1159 21.954C64.6647 22.6764 64.0095 23.2856 63.1504 23.7816C62.1804 24.3416 61.1496 24.6042 60.058 24.5694C58.9801 24.5266 57.9457 24.1908 56.9546 23.5621C55.9693 22.9116 55.1367 21.9975 54.4567 20.8197ZM63.5428 15.6292C63.1348 14.9226 62.6482 14.3998 62.0831 14.061C61.5099 13.7083 60.9118 13.5363 60.2887 13.545C59.6576 13.5399 59.0718 13.6933 58.5314 14.0053C57.991 14.3173 57.5682 14.737 57.2629 15.2643C56.9577 15.7915 56.8075 16.3955 56.8126 17.0762C56.8234 17.735 57.0289 18.4108 57.4289 19.1037C57.8289 19.7965 58.3194 20.3262 58.9006 20.6927C59.4875 21.0374 60.0897 21.2163 60.7069 21.2294C61.338 21.2346 61.9169 21.0851 62.4434 20.7811C62.9838 20.4691 63.4136 20.0455 63.7327 19.5102C64.0438 18.9611 64.1939 18.3571 64.1831 17.6983C64.1642 17.0256 63.9508 16.3359 63.5428 15.6292Z" fill="none" fill-opacity="0.79" shape-rendering="crispEdges"/>
<path d="M44.5523 18.6952C45.4253 18.1912 46.3132 17.9372 47.2162 17.9332C48.1112 17.9153 48.9617 18.1725 49.7678 18.7047C50.5798 19.2151 51.2858 19.9899 51.8858 21.0292L55.7858 27.7842L52.876 29.4642L49.204 23.1041C48.676 22.1896 48.0433 21.6218 47.3061 21.4008C46.5608 21.166 45.7933 21.2766 45.0034 21.7326C44.1998 22.1966 43.7064 22.814 43.5233 23.5848C43.346 24.3338 43.5214 25.1656 44.0494 26.0801L47.7214 32.4402L44.8115 34.1202L35.9315 18.7396L38.8414 17.0596L41.9014 22.3596C41.9875 21.6448 42.2623 20.9688 42.7259 20.3317C43.1814 19.6807 43.7902 19.1352 44.5523 18.6952Z" fill="none" fill-opacity="0.79" shape-rendering="crispEdges"/>
<path d="M23.951 36.4645C23.127 35.0373 22.7097 33.5785 22.6991 32.0881C22.6944 30.5759 23.0663 29.188 23.8148 27.9245C24.5691 26.6391 25.6392 25.5964 27.0248 24.7964C28.646 23.8604 30.3063 23.4561 32.0056 23.5835C33.705 23.7108 35.2212 24.3689 36.5541 25.5577L33.2078 27.4897C32.4753 26.9889 31.7042 26.7413 30.8945 26.7469C30.0986 26.7445 29.3058 26.9712 28.516 27.4272C27.6708 27.9152 27.0316 28.5522 26.5985 29.338C26.1712 30.102 25.9785 30.9522 26.0204 31.8888C26.0762 32.8173 26.384 33.7665 26.944 34.7365C27.496 35.6926 28.1642 36.4338 28.9484 36.9602C29.7385 37.4647 30.5752 37.7299 31.4585 37.7558C32.3476 37.7597 33.2148 37.5177 34.06 37.0297C34.8498 36.5737 35.4426 36.0005 35.8385 35.3101C36.2402 34.5979 36.4073 33.7993 36.3398 32.9145L39.6861 30.9825C40.0572 32.7451 39.873 34.3941 39.1336 35.9295C38.4001 37.443 37.2158 38.6718 35.5808 39.6158C34.1952 40.4158 32.7611 40.828 31.2788 40.8525C29.8023 40.8551 28.4144 40.4832 27.1151 39.7369C25.8297 38.9825 24.775 37.8917 23.951 36.4645Z" fill="none" fill-opacity="0.79" shape-rendering="crispEdges"/>
<path d="M8.8576 35.5346L14.0416 44.5136C14.6096 45.4974 15.3019 46.1046 16.1186 46.3351C16.9273 46.5518 17.7959 46.3921 18.7242 45.8561C19.6665 45.3121 20.2459 44.6358 20.4626 43.8271C20.6713 43.0046 20.4916 42.1014 19.9236 41.1176L14.7396 32.1386L17.6703 30.4466L22.8423 39.4048C23.5543 40.638 23.8881 41.8402 23.8437 43.0113C23.8051 44.1605 23.4595 45.2099 22.8069 46.1595C22.168 47.101 21.3013 47.8878 20.2067 48.5198C19.1259 49.1438 18.0181 49.497 16.8832 49.5795C15.7623 49.6539 14.7015 49.4165 13.7008 48.8673C12.6921 48.3042 11.8318 47.406 11.1198 46.1728L5.94775 37.2146L8.8576 35.5346Z" fill="none" fill-opacity="0.79" shape-rendering="crispEdges"/>
<path d="M9.04061 34.8516L9.29061 35.2846L14.4746 44.2636C14.9992 45.1723 15.5989 45.6678 16.2512 45.853C16.8977 46.0252 17.6283 45.9115 18.4742 45.4231C19.3361 44.9256 19.8051 44.3451 19.9788 43.7009C20.1445 43.0434 20.0153 42.2763 19.4906 41.3676L14.3066 32.3886L14.0566 31.9556L14.4896 31.7056L17.4203 30.0136L17.8533 29.7636L18.1033 30.1966L23.2753 39.1548C24.024 40.4516 24.3918 41.7458 24.3434 43.0291M9.04061 34.8516L23.8437 43.0113M9.04061 34.8516L8.6076 35.1016L5.69775 36.7816L5.26474 37.0316L5.51474 37.4646L10.6867 46.4228C11.4334 47.7161 12.3532 48.6876 13.4571 49.3039L13.4602 49.3056C14.5431 49.8999 15.6987 50.1592 16.9164 50.0784L16.9195 50.0781C18.1367 49.9897 19.3169 49.6108 20.4567 48.9528C21.6088 48.2876 22.534 47.4517 23.2196 46.4417M9.04061 34.8516L22.8069 46.1595M24.3434 43.0291C24.3433 43.0295 24.3433 43.0298 24.3433 43.0302L23.8437 43.0113M24.3434 43.0291C24.3434 43.0287 24.3434 43.0284 24.3434 43.028L23.8437 43.0113M24.3434 43.0291C24.3014 44.2731 23.9256 45.4142 23.2196 46.4417M23.8437 43.0113C23.8051 44.1605 23.4595 45.2099 22.8069 46.1595M23.2196 46.4417C23.22 46.4412 23.2203 46.4407 23.2206 46.4402L22.8069 46.1595M23.2196 46.4417C23.2194 46.442 23.2191 46.4423 23.2189 46.4427L22.8069 46.1595M71.4423 7.15633L73.5865 5.91833L74.0196 5.66833L73.7696 5.23532L72.3896 2.84509L72.1396 2.41208L71.7065 2.66208L69.5623 3.90007L68.1683 1.4856L67.9183 1.05258L67.4853 1.30258L64.5546 2.99458L64.1216 3.24458L64.3716 3.6776L65.7656 6.09208L64.8268 6.63408L64.3938 6.88408L64.6438 7.31709L66.0238 9.70732L66.2738 10.1403L66.7068 9.89033L67.6456 9.34833L70.5996 14.4648C71.328 15.7264 72.2451 16.5636 73.3779 16.8498C74.5071 17.1351 75.7355 16.8435 77.0255 16.0988L78.8545 15.0428L79.2876 14.7928L79.0376 14.3598L77.6216 11.9072L77.3716 11.4742L76.9385 11.7242L75.5875 12.5042C75.2 12.7279 74.9676 12.7658 74.8483 12.7512C74.7451 12.7165 74.5889 12.6064 74.4083 12.2936L71.4423 7.15633ZM52.855 17.3476L52.8553 17.3537C52.9229 18.608 53.3183 19.848 54.0237 21.0697C54.7366 22.3045 55.6198 23.28 56.6791 23.9794L56.679 23.9795L56.6867 23.9844C57.7455 24.6559 58.8646 25.0224 60.0381 25.069L60.042 25.0691C61.2293 25.107 62.3519 24.82 63.4004 24.2146C64.3187 23.6845 65.0387 23.0214 65.54 22.2189L65.542 22.2157C65.7747 21.8367 65.9622 21.4523 66.1025 21.0629L66.4338 21.6366L66.6838 22.0696L67.1168 21.8196L70.0474 20.1276L70.4804 19.8776L70.2304 19.4446L63.5824 7.9299L63.3324 7.49689L62.8994 7.74689L59.9688 9.43889L59.5357 9.68889L59.7857 10.1219L60.1105 10.6844C59.7026 10.6157 59.2777 10.5895 58.8367 10.6047C57.9026 10.6292 56.9744 10.9182 56.0572 11.4478C54.9985 12.0591 54.178 12.8821 53.6082 13.9147L53.6063 13.9181C53.0494 14.946 52.8027 16.0937 52.855 17.3476ZM61.821 14.4868L61.821 14.4868L61.826 14.4898C62.3028 14.7757 62.7342 15.2288 63.1097 15.8792C63.4844 16.5281 63.6665 17.1364 63.6832 17.7094C63.6922 18.28 63.5633 18.7929 63.3004 19.2589C63.0254 19.7185 62.6584 20.0797 62.1934 20.3481C61.748 20.6053 61.2585 20.7334 60.7144 20.7295C60.1944 20.7179 59.6783 20.5682 59.1606 20.2656C58.6614 19.949 58.2264 19.485 57.8619 18.8537C57.4958 18.2196 57.3221 17.6269 57.3125 17.0701C57.3085 16.469 57.4405 15.9555 57.6956 15.5148C57.9559 15.0652 58.3149 14.7077 58.7814 14.4384C59.2437 14.1715 59.7416 14.0406 60.2846 14.045V14.0451L60.2957 14.045C60.8163 14.0377 61.322 14.1797 61.821 14.4868ZM56.0358 28.2172L56.4688 27.9672L56.2188 27.5342L52.3188 20.7792C51.6893 19.6887 50.9327 18.8476 50.0386 18.2844C49.1575 17.7038 48.2113 17.414 47.2102 17.4332C46.2117 17.4384 45.2405 17.7206 44.3023 18.2622C43.4853 18.7339 42.8203 19.3259 42.3189 20.0412C42.079 20.3714 41.8834 20.7141 41.7335 21.0689L39.2744 16.8096L39.0244 16.3765L38.5914 16.6265L35.6815 18.3065L35.2485 18.5565L35.4985 18.9896L44.3785 34.3702L44.6285 34.8032L45.0615 34.5532L47.9714 32.8732L48.4044 32.6232L48.1544 32.1902L44.4824 25.8301C43.9942 24.9846 43.8715 24.2852 44.0097 23.7004C44.1556 23.0865 44.5467 22.5736 45.2534 22.1656C45.9441 21.7669 46.5669 21.6921 47.1558 21.8777L47.1558 21.8778L47.1625 21.8798C47.7383 22.0523 48.2827 22.5084 48.7709 23.3541L52.4429 29.7142L52.6929 30.1472L53.126 29.8972L56.0358 28.2172ZM22.1991 32.0897L22.1991 32.0917C22.2104 33.6775 22.6554 35.2204 23.518 36.7145C24.3806 38.2085 25.4943 39.3654 26.862 40.1681L26.8661 40.1704C28.2402 40.9598 29.7141 41.3553 31.2797 41.3526L31.287 41.3524C32.861 41.3265 34.3776 40.8878 35.8308 40.0488C37.5415 39.0612 38.8012 37.762 39.5836 36.1476L39.5841 36.1465C40.3742 34.5057 40.5678 32.7435 40.1754 30.8795L40.0334 30.2047L39.4361 30.5495L36.0898 32.4815L35.8174 32.6388L35.8413 32.9525C35.9018 33.7468 35.7521 34.4447 35.4038 35.063C35.058 35.6655 34.5341 36.1787 33.81 36.5967C33.0357 37.0438 32.2569 37.2582 31.4669 37.2558C30.6836 37.2318 29.9378 36.9976 29.2224 36.5419C28.5133 36.0648 27.8961 35.3856 27.377 34.4865C26.8488 33.5716 26.5706 32.6982 26.5198 31.8626C26.4824 31.0137 26.6569 30.258 27.0349 29.5821L27.0364 29.5793C27.4217 28.8803 27.9925 28.3068 28.766 27.8603C29.4907 27.4419 30.1976 27.2448 30.893 27.2469L30.8979 27.2468C31.5959 27.242 32.2687 27.4534 32.9256 27.9025L33.1854 28.08L33.4578 27.9227L36.8041 25.9907L37.4031 25.6449L36.8869 25.1845C35.4762 23.9264 33.8575 23.2209 32.043 23.0849C30.2336 22.9492 28.4741 23.3823 26.7748 24.3634C25.3202 25.2032 24.1854 26.3054 23.3841 27.6705C22.5885 29.0138 22.1941 30.4904 22.1991 32.0897Z" stroke="#003e96" shape-rendering="crispEdges"/>
</g>
<defs>
<filter id="filter0_d_143_12" x="0.581543" y="0.369629" width="83.3892" height="58.2231" filterUnits="userSpaceOnUse" color-interpolation-filters="sRGB">
<feFlood flood-opacity="0" result="BackgroundImageFix"/>
<feColorMatrix in="SourceAlpha" type="matrix" values="0 0 0 0 0 0 0 0 0 0 0 0 0 0 0 0 0 0 127 0" result="hardAlpha"/>
<feOffset dy="4"/>
<feGaussianBlur stdDeviation="2"/>
<feComposite in2="hardAlpha" operator="out"/>
<feColorMatrix type="matrix" values="0 0 0 0 0 0 0 0 0 0 0 0 0 0 0 0 0 0 0.25 0"/>
<feBlend mode="normal" in2="BackgroundImageFix" result="effect1_dropShadow_143_12"/>
<feBlend mode="normal" in="SourceGraphic" in2="effect1_dropShadow_143_12" result="shape"/>
</filter>
</defs>
</svg>
